<?xml version="1.0" encoding="utf-8"?>
<svg version="1.1" xmlns:xlink="http://www.w3.org/1999/xlink" width="52px" height="52px" viewBox="618 534.5  52 52" xmlns="http://www.w3.org/2000/svg">
  <path d="M 644 534.5  C 658.56 534.5  670 545.94  670 560.5  C 670 575.06  658.56 586.5  644 586.5  C 629.44 586.5  618 575.06  618 560.5  C 618 545.94  629.44 534.5  644 534.5  Z " fill-rule="nonzero" fill="#000000" stroke="none" fill-opacity="0" />
  <path d="M 644 535  C 658.28 535  669.5 546.22  669.5 560.5  C 669.5 574.78  658.28 586  644 586  C 629.72 586  618.5 574.78  618.5 560.5  C 618.5 546.22  629.72 535  644 535  Z " stroke-width="1" stroke="#797979" fill="none" />
  <path d="M 644 573.5  C 636.72 573.5  631 567.78  631 560.5  C 631 553.22  636.72 547.5  644 547.5  C 651.28 547.5  657 553.22  657 560.5  C 657 567.78  651.28 573.5  644 573.5  " fill-rule="nonzero" fill="#797979" stroke="none" />
</svg>