<?xml version="1.0" encoding="utf-8"?>
<svg version="1.1" xmlns:xlink="http://www.w3.org/1999/xlink" width="52px" height="52px" viewBox="618 1212.5  52 52" xmlns="http://www.w3.org/2000/svg">
  <path d="M 644 1212.5  C 658.56 1212.5  670 1223.94  670 1238.5  C 670 1253.06  658.56 1264.5  644 1264.5  C 629.44 1264.5  618 1253.06  618 1238.5  C 618 1223.94  629.44 1212.5  644 1212.5  Z " fill-rule="nonzero" fill="#ffffff" stroke="none" />
  <path d="M 644 1213  C 658.28 1213  669.5 1224.22  669.5 1238.5  C 669.5 1252.78  658.28 1264  644 1264  C 629.72 1264  618.5 1252.78  618.5 1238.5  C 618.5 1224.22  629.72 1213  644 1213  Z " stroke-width="1" stroke="#797979" fill="none" />
  <path d="M 644 1251.5  C 636.72 1251.5  631 1245.78  631 1238.5  C 631 1231.22  636.72 1225.5  644 1225.5  C 651.28 1225.5  657 1231.22  657 1238.5  C 657 1245.78  651.28 1251.5  644 1251.5  " fill-rule="nonzero" fill="#797979" stroke="none" />
</svg>