<?xml version="1.0" encoding="utf-8"?>
<svg version="1.1" xmlns:xlink="http://www.w3.org/1999/xlink" width="26px" height="23px" xmlns="http://www.w3.org/2000/svg">
  <g transform="matrix(1 0 0 1 -439 -116 )">
    <path d="M 10.2442708333333 10.4564302884615  C 11.0071180555556 9.6777844551282  11.9256944444444 9.28846153846154  13 9.28846153846154  C 14.0743055555556 9.28846153846154  14.9928819444444 9.6777844551282  15.7557291666667 10.4564302884615  C 16.5185763888889 11.2350761217949  16.9 12.1726762820513  16.9 13.2692307692308  C 16.9 14.3657852564103  16.5185763888889 15.3033854166667  15.7557291666667 16.08203125  C 14.9928819444444 16.8606770833333  14.0743055555556 17.25  13 17.25  C 11.9256944444444 17.25  11.0071180555556 16.8606770833333  10.2442708333333 16.08203125  C 9.48142361111111 15.3033854166667  9.1 14.3657852564103  9.1 13.2692307692308  C 9.1 12.1726762820513  9.48142361111111 11.2350761217949  10.2442708333333 10.4564302884615  Z M 19.5 3.53846153846154  L 22.5333333333333 3.53846153846154  C 23.4902777777778 3.53846153846154  24.3072916666667 3.88401442307692  24.984375 4.57512019230769  C 25.6614583333333 5.26622596153846  26 6.10016025641026  26 7.07692307692308  L 26 19.4615384615385  C 26 20.4383012820513  25.6614583333333 21.2722355769231  24.984375 21.9633413461538  C 24.3072916666667 22.6544471153846  23.4902777777778 23  22.5333333333333 23  L 3.46666666666667 23  C 2.50972222222222 23  1.69270833333333 22.6544471153846  1.015625 21.9633413461538  C 0.338541666666667 21.2722355769231  0 20.4383012820513  0 19.4615384615385  L 0 7.07692307692308  C 0 6.10016025641026  0.338541666666667 5.26622596153846  1.015625 4.57512019230769  C 1.69270833333333 3.88401442307692  2.50972222222222 3.53846153846154  3.46666666666667 3.53846153846154  L 6.5 3.53846153846154  L 7.190625 1.65865384615385  C 7.36215277777778 1.20713141025641  7.67586805555556 0.817808493589742  8.13177083333333 0.490685096153845  C 8.58767361111111 0.163561698717951  9.05486111111111 0  9.53333333333333 0  L 16.4666666666667 0  C 16.9451388888889 0  17.4123263888889 0.163561698717951  17.8682291666667 0.490685096153845  C 18.3241319444444 0.817808493589742  18.6378472222222 1.20713141025641  18.809375 1.65865384615385  L 19.5 3.53846153846154  Z M 8.7140625 17.6439302884615  C 9.90121527777778 18.8556690705128  11.3298611111111 19.4615384615385  13 19.4615384615385  C 14.6701388888889 19.4615384615385  16.0987847222222 18.8556690705128  17.2859375 17.6439302884615  C 18.4730902777778 16.4321915064103  19.0666666666667 14.9739583333333  19.0666666666667 13.2692307692308  C 19.0666666666667 11.5645032051282  18.4730902777778 10.1062700320513  17.2859375 8.89453125  C 16.0987847222222 7.68279246794872  14.6701388888889 7.07692307692308  13 7.07692307692308  C 11.3298611111111 7.07692307692308  9.90121527777778 7.68279246794872  8.7140625 8.89453125  C 7.52690972222222 10.1062700320513  6.93333333333333 11.5645032051282  6.93333333333333 13.2692307692308  C 6.93333333333333 14.9739583333333  7.52690972222222 16.4321915064103  8.7140625 17.6439302884615  Z " fill-rule="nonzero" fill="#aaaaaa" stroke="none" transform="matrix(1 0 0 1 439 116 )" />
  </g>
</svg>