<?xml version="1.0" encoding="utf-8"?>
<svg version="1.1" xmlns:xlink="http://www.w3.org/1999/xlink" width="24px" height="20px" xmlns="http://www.w3.org/2000/svg">
  <g transform="matrix(1 0 0 1 -270 -7 )">
    <path d="M 9.45625 9.09254807692308  C 10.1604166666667 8.41546474358974  11.0083333333333 8.07692307692307  12 8.07692307692308  C 12.9916666666667 8.07692307692307  13.8395833333333 8.41546474358974  14.54375 9.09254807692308  C 15.2479166666667 9.76963141025641  15.6 10.5849358974359  15.6 11.5384615384615  C 15.6 12.4919871794872  15.2479166666667 13.3072916666667  14.54375 13.984375  C 13.8395833333333 14.6614583333333  12.9916666666667 15  12 15  C 11.0083333333333 15  10.1604166666667 14.6614583333333  9.45625 13.984375  C 8.75208333333334 13.3072916666667  8.4 12.4919871794872  8.4 11.5384615384615  C 8.4 10.5849358974359  8.75208333333334 9.76963141025641  9.45625 9.09254807692308  Z M 18 3.07692307692308  L 20.8 3.07692307692308  C 21.6833333333333 3.07692307692308  22.4375 3.37740384615385  23.0625 3.97836538461539  C 23.6875 4.57932692307692  24 5.30448717948718  24 6.15384615384615  L 24 16.9230769230769  C 24 17.7724358974359  23.6875 18.4975961538462  23.0625 19.0985576923077  C 22.4375 19.6995192307692  21.6833333333333 20  20.8 20  L 3.2 20  C 2.31666666666667 20  1.5625 19.6995192307692  0.9375 19.0985576923077  C 0.3125 18.4975961538462  0 17.7724358974359  0 16.9230769230769  L 0 6.15384615384615  C 0 5.30448717948718  0.3125 4.57932692307692  0.9375 3.97836538461539  C 1.5625 3.37740384615385  2.31666666666667 3.07692307692308  3.2 3.07692307692308  L 6 3.07692307692308  L 6.6375 1.44230769230769  C 6.79583333333333 1.04967948717949  7.08541666666667 0.711137820512819  7.50625 0.426682692307692  C 7.92708333333333 0.142227564102566  8.35833333333333 0  8.8 0  L 15.2 0  C 15.6416666666667 0  16.0729166666667 0.142227564102566  16.49375 0.426682692307692  C 16.9145833333333 0.711137820512819  17.2041666666667 1.04967948717949  17.3625 1.44230769230769  L 18 3.07692307692308  Z M 8.04375 15.3425480769231  C 9.13958333333333 16.396233974359  10.4583333333333 16.9230769230769  12 16.9230769230769  C 13.5416666666667 16.9230769230769  14.8604166666667 16.396233974359  15.95625 15.3425480769231  C 17.0520833333333 14.2888621794872  17.6 13.0208333333333  17.6 11.5384615384615  C 17.6 10.0560897435897  17.0520833333333 8.7880608974359  15.95625 7.734375  C 14.8604166666667 6.6806891025641  13.5416666666667 6.15384615384615  12 6.15384615384615  C 10.4583333333333 6.15384615384615  9.13958333333333 6.6806891025641  8.04375 7.734375  C 6.94791666666667 8.7880608974359  6.4 10.0560897435897  6.4 11.5384615384615  C 6.4 13.0208333333333  6.94791666666667 14.2888621794872  8.04375 15.3425480769231  Z " fill-rule="nonzero" fill="#aaaaaa" stroke="none" transform="matrix(1 0 0 1 270 7 )" />
  </g>
</svg>