<?xml version="1.0" encoding="utf-8"?>
<svg version="1.1" xmlns:xlink="http://www.w3.org/1999/xlink" width="12px" height="5px" xmlns="http://www.w3.org/2000/svg">
  <g transform="matrix(1 0 0 1 -651 -173 )">
    <path d="M 8.90959821428572 3.91710069444444  C 9.8046875 3.56553819444444  10.5491071428571 3.0931712962963  11.1428571428571 2.5  C 10.4642857142857 1.81712962962963  9.61383928571429 1.30642361111111  8.59151785714286 0.967881944444444  C 8.86383928571429 1.26880787037037  9 1.5943287037037  9 1.94444444444444  C 9 2.47974537037037  8.70647321428572 2.93764467592593  8.11941964285714 3.31814236111111  C 7.53236607142857 3.6986400462963  6.82589285714286 3.88888888888889  6 3.88888888888889  C 5.17410714285714 3.88888888888889  4.46763392857143 3.6986400462963  3.88058035714286 3.31814236111111  C 3.29352678571429 2.93764467592593  3 2.47974537037037  3 1.94444444444444  C 3 1.5943287037037  3.13616071428571 1.26880787037037  3.40848214285714 0.967881944444444  C 2.38616071428571 1.30642361111111  1.53571428571429 1.81712962962963  0.857142857142857 2.5  C 1.45089285714286 3.0931712962963  2.1953125 3.56553819444444  3.09040178571429 3.91710069444444  C 3.98549107142857 4.26866319444444  4.95535714285714 4.44444444444444  6 4.44444444444444  C 7.04464285714286 4.44444444444444  8.01450892857143 4.26866319444444  8.90959821428572 3.91710069444444  Z M 6.22767857142857 0.980902777777778  C 6.29017857142857 0.940393518518519  6.32142857142857 0.891203703703704  6.32142857142857 0.833333333333333  C 6.32142857142857 0.775462962962963  6.29017857142857 0.726273148148148  6.22767857142857 0.685763888888889  C 6.16517857142857 0.645254629629629  6.08928571428571 0.624999999999999  6 0.625  C 5.44196428571429 0.624999999999999  4.96316964285714 0.754484953703704  4.56361607142857 1.01345486111111  C 4.1640625 1.27242476851852  3.96428571428571 1.58275462962963  3.96428571428571 1.94444444444444  C 3.96428571428571 2.00231481481481  3.99553571428572 2.05150462962963  4.05803571428571 2.09201388888889  C 4.12053571428571 2.13252314814815  4.19642857142857 2.15277777777778  4.28571428571429 2.15277777777778  C 4.375 2.15277777777778  4.45089285714286 2.13252314814815  4.51339285714286 2.09201388888889  C 4.57589285714286 2.05150462962963  4.60714285714286 2.00231481481481  4.60714285714286 1.94444444444444  C 4.60714285714286 1.69560185185185  4.74330357142857 1.48292824074074  5.015625 1.30642361111111  C 5.28794642857143 1.12991898148148  5.61607142857143 1.04166666666667  6 1.04166666666667  C 6.08928571428571 1.04166666666667  6.16517857142857 1.02141203703704  6.22767857142857 0.980902777777778  Z M 11.8660714285714 2.20052083333333  C 11.9553571428571 2.30179398148148  12 2.40162037037037  12 2.5  C 12 2.59837962962963  11.9553571428571 2.69820601851852  11.8660714285714 2.79947916666667  C 11.2410714285714 3.46498842592593  10.4006696428571 3.99811921296296  9.34486607142857 4.39887152777778  C 8.2890625 4.79962384259259  7.17410714285714 5  6 5  C 4.82589285714286 5  3.7109375 4.79890046296296  2.65513392857143 4.39670138888889  C 1.59933035714286 3.99450231481481  0.758928571428572 3.46209490740741  0.133928571428571 2.79947916666667  C 0.0446428571428571 2.69820601851852  0 2.59837962962963  0 2.5  C 0 2.40162037037037  0.0446428571428571 2.30179398148148  0.133928571428571 2.20052083333333  C 0.758928571428572 1.53790509259259  1.59933035714286 1.00549768518518  2.65513392857143 0.603298611111111  C 3.7109375 0.201099537037037  4.82589285714286 0  6 0  C 7.17410714285714 0  8.2890625 0.201099537037037  9.34486607142857 0.603298611111111  C 10.4006696428571 1.00549768518518  11.2410714285714 1.53790509259259  11.8660714285714 2.20052083333333  Z " fill-rule="nonzero" fill="#000000" stroke="none" transform="matrix(1 0 0 1 651 173 )" />
  </g>
</svg>