<?xml version="1.0" encoding="utf-8"?>
<svg version="1.1" xmlns:xlink="http://www.w3.org/1999/xlink" width="14px" height="6px" xmlns="http://www.w3.org/2000/svg">
  <g transform="matrix(1 0 0 1 -404 -171 )">
    <path d="M 1.9296875 5.03515625  C 1.9765625 5.05859375  2 5.08854166666667  2 5.125  L 2 5.875  C 2 5.91145833333333  1.9765625 5.94140625  1.9296875 5.96484375  C 1.8828125 5.98828125  1.82291666666667 6  1.75 6  L 0.25 6  C 0.177083333333333 6  0.1171875 5.98828125  0.0703125 5.96484375  C 0.0234375 5.94140625  0 5.91145833333333  0 5.875  L 0 5.125  C 0 5.08854166666667  0.0234375 5.05859375  0.0703125 5.03515625  C 0.1171875 5.01171875  0.177083333333333 5  0.25 5  L 1.75 5  C 1.82291666666667 5  1.8828125 5.01171875  1.9296875 5.03515625  Z M 4.9296875 4.53515625  C 4.9765625 4.55859375  5 4.58854166666667  5 4.625  L 5 5.875  C 5 5.91145833333333  4.9765625 5.94140625  4.9296875 5.96484375  C 4.8828125 5.98828125  4.82291666666667 6  4.75 6  L 3.25 6  C 3.17708333333333 6  3.1171875 5.98828125  3.0703125 5.96484375  C 3.0234375 5.94140625  3 5.91145833333333  3 5.875  L 3 4.625  C 3 4.58854166666667  3.0234375 4.55859375  3.0703125 4.53515625  C 3.1171875 4.51171875  3.17708333333333 4.5  3.25 4.5  L 4.75 4.5  C 4.82291666666667 4.5  4.8828125 4.51171875  4.9296875 4.53515625  Z M 7.9296875 3.53515625  C 7.9765625 3.55859375  8 3.58854166666667  8 3.625  L 8 5.875  C 8 5.91145833333333  7.9765625 5.94140625  7.9296875 5.96484375  C 7.8828125 5.98828125  7.82291666666667 6  7.75 6  L 6.25 6  C 6.17708333333333 6  6.1171875 5.98828125  6.0703125 5.96484375  C 6.0234375 5.94140625  6 5.91145833333333  6 5.875  L 6 3.625  C 6 3.58854166666667  6.0234375 3.55859375  6.0703125 3.53515625  C 6.1171875 3.51171875  6.17708333333333 3.5  6.25 3.5  L 7.75 3.5  C 7.82291666666667 3.5  7.8828125 3.51171875  7.9296875 3.53515625  Z M 10.9296875 2.03515625  C 10.9765625 2.05859375  11 2.08854166666667  11 2.125  L 11 5.875  C 11 5.91145833333333  10.9765625 5.94140625  10.9296875 5.96484375  C 10.8828125 5.98828125  10.8229166666667 6  10.75 6  L 9.25 6  C 9.17708333333333 6  9.1171875 5.98828125  9.0703125 5.96484375  C 9.0234375 5.94140625  9 5.91145833333333  9 5.875  L 9 2.125  C 9 2.08854166666667  9.0234375 2.05859375  9.0703125 2.03515625  C 9.1171875 2.01171875  9.17708333333333 2  9.25 2  L 10.75 2  C 10.8229166666667 2  10.8828125 2.01171875  10.9296875 2.03515625  Z M 13.9296875 0.03515625  C 13.9765625 0.05859375  14 0.0885416666666659  14 0.125  L 14 5.875  C 14 5.91145833333333  13.9765625 5.94140625  13.9296875 5.96484375  C 13.8828125 5.98828125  13.8229166666667 6  13.75 6  L 12.25 6  C 12.1770833333333 6  12.1171875 5.98828125  12.0703125 5.96484375  C 12.0234375 5.94140625  12 5.91145833333333  12 5.875  L 12 0.125  C 12 0.0885416666666659  12.0234375 0.05859375  12.0703125 0.03515625  C 12.1171875 0.01171875  12.1770833333333 0  12.25 0  L 13.75 0  C 13.8229166666667 0  13.8828125 0.01171875  13.9296875 0.03515625  Z " fill-rule="nonzero" fill="#000000" stroke="none" transform="matrix(1 0 0 1 404 171 )" />
  </g>
</svg>