<?xml version="1.0" encoding="utf-8"?>
<svg version="1.1" xmlns:xlink="http://www.w3.org/1999/xlink" width="13px" height="8px" xmlns="http://www.w3.org/2000/svg">
  <g transform="matrix(1 0 0 1 -459 -170 )">
    <path d="M 7.11558044806517 7.57849462365591  C 6.79344874405974 7.8594982078853  6.58825526137135 8  6.5 8  C 6.41174473862865 8  6.20655125594026 7.8594982078853  5.88441955193483 7.57849462365591  C 5.5622878479294 7.29749103942652  5.40122199592668 7.11875746714456  5.40122199592668 7.04229390681004  C 5.40122199592668 6.91995221027479  5.53912084181942 6.81672640382318  5.81491853360489 6.7326164874552  C 6.09071622539036 6.64850657108722  6.31907671418873 6.60645161290323  6.5 6.60645161290323  C 6.68092328581127 6.60645161290323  6.90928377460964 6.64850657108722  7.18508146639511 6.7326164874552  C 7.46087915818058 6.81672640382318  7.59877800407332 6.91995221027479  7.59877800407332 7.04229390681004  C 7.59877800407332 7.11875746714456  7.4377121520706 7.29749103942652  7.11558044806517 7.57849462365591  Z M 8.90605906313646 6.015770609319  C 8.57289545145961 6.30250896057348  8.36659877800407 6.44587813620072  8.28716904276986 6.44587813620072  C 8.27834351663272 6.44587813620072  8.19008825526137 6.39808841099164  8.0224032586558 6.30250896057348  C 7.85471826205024 6.20692951015532  7.63077053632044 6.11135005973716  7.35056008146639 6.015770609319  C 7.07034962661236 5.92019115890084  6.78682959945689 5.87240143369176  6.5 5.87240143369176  C 6.21317040054311 5.87240143369176  5.92965037338764 5.92019115890084  5.6494399185336 6.015770609319  C 5.36922946367957 6.11135005973716  5.1463849287169 6.20692951015532  4.98090631364562 6.30250896057348  C 4.81542769857434 6.39808841099164  4.72606924643584 6.44587813620072  4.71283095723014 6.44587813620072  C 4.63340122199593 6.44587813620072  4.42710454854039 6.30250896057348  4.09394093686354 6.015770609319  C 3.76077732518669 5.72903225806452  3.59419551934827 5.55125448028674  3.59419551934827 5.48243727598566  C 3.59419551934827 5.43273596176822  3.61625933469111 5.38876941457587  3.66038696537678 5.3505376344086  C 4.00458248472505 5.05615292712067  4.43703326544467 4.82485065710872  4.95773930753564 4.65663082437276  C 5.47844534962661 4.4884109916368  5.99253224711473 4.40430107526882  6.5 4.40430107526882  C 7.00746775288527 4.40430107526882  7.52155465037339 4.4884109916368  8.04226069246436 4.65663082437276  C 8.56296673455533 4.82485065710872  8.99541751527495 5.05615292712067  9.33961303462322 5.3505376344086  C 9.38374066530889 5.38876941457587  9.40580448065173 5.43273596176822  9.40580448065173 5.48243727598566  C 9.40580448065173 5.55125448028674  9.23922267481331 5.72903225806452  8.90605906313646 6.015770609319  Z M 10.7031568228106 4.45591397849462  C 10.372199592668 4.7426523297491  10.1692124915139 4.88602150537634  10.0941955193483 4.88602150537634  C 10.045655125594 4.88602150537634  9.9949083503055 4.87072879330944  9.94195519348269 4.84014336917563  C 9.3418194161575 4.43870967741935  8.78581126951799 4.14336917562724  8.27393075356415 3.95412186379928  C 7.76205023761032 3.76487455197133  7.17073998642227 3.67025089605735  6.5 3.67025089605735  C 6.12491513917176 3.67025089605735  5.74872708757638 3.71230585424134  5.37143584521385 3.79641577060932  C 4.99414460285132 3.8805256869773  4.66539375424304 3.98183990442055  4.385183299389 4.10035842293907  C 4.10497284453496 4.21887694145759  3.85454854039375 4.3373954599761  3.63391038696538 4.45591397849462  C 3.413272233537 4.57443249701314  3.23896809232858 4.67574671445639  3.11099796334012 4.75985663082437  C 2.98302783435166 4.84396654719235  2.91463000678887 4.88602150537634  2.90580448065173 4.88602150537634  C 2.83078750848608 4.88602150537634  2.62780040733198 4.7426523297491  2.29684317718941 4.45591397849462  C 1.96588594704684 4.16917562724014  1.80040733197556 3.99139784946237  1.80040733197556 3.92258064516129  C 1.80040733197556 3.87670250896057  1.8224711473184 3.83464755077658  1.86659877800407 3.79641577060932  C 2.44908350305499 3.29175627240143  3.1551255940258 2.89988052568698  3.9847250509165 2.62078853046595  C 4.8143245078072 2.34169653524492  5.65274949083503 2.20215053763441  6.5 2.20215053763441  C 7.34725050916497 2.20215053763441  8.1856754921928 2.34169653524492  9.0152749490835 2.62078853046595  C 9.8448744059742 2.89988052568698  10.550916496945 3.29175627240143  11.1334012219959 3.79641577060932  C 11.1775288526816 3.83464755077658  11.1995926680244 3.87670250896057  11.1995926680244 3.92258064516129  C 11.1995926680244 3.99139784946237  11.0341140529532 4.16917562724014  10.7031568228106 4.45591397849462  Z M 12.5002545824847 2.90179211469534  C 12.1670909708079 3.18853046594982  11.9630006788866 3.33189964157706  11.887983706721 3.33189964157706  C 11.8394433129667 3.33189964157706  11.7909029192125 3.31469534050179  11.7423625254582 3.28028673835125  C 10.9524779361847 2.68004778972521  10.1328071961982 2.22795698924731  9.28335030549898 1.92401433691756  C 8.43389341479973 1.62007168458781  7.5061099796334 1.46810035842294  6.5 1.46810035842294  C 5.4938900203666 1.46810035842294  4.56610658520027 1.62007168458781  3.71664969450102 1.92401433691756  C 2.86719280380177 2.22795698924731  2.04752206381534 2.68004778972521  1.25763747454175 3.28028673835125  C 1.20909708078751 3.31469534050179  1.16055668703327 3.33189964157706  1.11201629327902 3.33189964157706  C 1.03699932111337 3.33189964157706  0.832909029192125 3.18853046594982  0.499745417515275 2.90179211469534  C 0.166581805838425 2.61505376344086  0 2.43727598566308  0 2.36845878136201  C 0 2.31875746714456  0.0220638153428378 2.27479091995221  0.0661914460285132 2.23655913978495  C 0.891378139850645 1.52544802867383  1.87321792260692 0.974910394265233  3.01171079429735 0.58494623655914  C 4.15020366598778 0.194982078853046  5.31296673455533 0  6.5 0  C 7.68703326544467 0  8.84979633401222 0.194982078853046  9.98828920570265 0.58494623655914  C 11.1267820773931 0.974910394265233  12.1086218601494 1.52544802867383  12.9338085539715 2.23655913978495  C 12.9779361846572 2.27479091995221  13 2.31875746714456  13 2.36845878136201  C 13 2.43727598566308  12.8334181941616 2.61505376344086  12.5002545824847 2.90179211469534  Z " fill-rule="nonzero" fill="#000000" stroke="none" transform="matrix(1 0 0 1 459 170 )" />
  </g>
</svg>