<?xml version="1.0" encoding="utf-8"?>
<svg version="1.1" xmlns:xlink="http://www.w3.org/1999/xlink" width="9px" height="17px" xmlns="http://www.w3.org/2000/svg">
  <g transform="matrix(1 0 0 1 -699 -195 )">
    <path d="M 9 8.5  C 9 8.68279569892473  8.94498069498069 8.84098428453267  8.83494208494209 8.97456575682382  L 2.38899613899614 16.7996277915633  C 2.27895752895753 16.9332092638544  2.14864864864865 17  1.9980694980695 17  C 1.84749034749035 17  1.71718146718147 16.9332092638544  1.60714285714286 16.7996277915633  L 0.165057915057915 15.0490074441687  C 0.0550193050193051 14.9154259718776  0 14.7572373862696  0 14.5744416873449  C 0 14.3916459884202  0.0550193050193051 14.2334574028122  0.165057915057915 14.0998759305211  L 4.77799227799228 8.5  L 0.165057915057915 2.90012406947891  C 0.0550193050193051 2.76654259718776  0 2.60835401157982  0 2.42555831265509  C 0 2.24276261373035  0.0550193050193051 2.08457402812241  0.165057915057915 1.95099255583127  L 1.60714285714286 0.200372208436724  C 1.71718146718147 0.0667907361455741  1.84749034749035 0  1.9980694980695 0  C 2.14864864864865 0  2.27895752895753 0.0667907361455741  2.38899613899614 0.200372208436724  L 8.83494208494209 8.02543424317618  C 8.94498069498069 8.15901571546733  9 8.31720430107527  9 8.5  Z " fill-rule="nonzero" fill="#7f7f7f" stroke="none" transform="matrix(1 0 0 1 699 195 )" />
  </g>
</svg>