<?xml version="1.0" encoding="utf-8"?>
<svg version="1.1" xmlns:xlink="http://www.w3.org/1999/xlink" width="34px" height="30px" xmlns="http://www.w3.org/2000/svg">
  <g transform="matrix(1 0 0 1 -8 -6 )">
    <path d="M 25 6  C 34.52 6  42 12.6  42 21  C 42 29.4  34.52 36  25 36  C 15.48 36  8 29.4  8 21  C 8 12.6  15.48 6  25 6  Z " fill-rule="nonzero" fill="#ffffff" stroke="none" />
    <path d="M 25 6.5  C 34.24 6.5  41.5 12.88  41.5 21  C 41.5 29.12  34.24 35.5  25 35.5  C 15.76 35.5  8.5 29.12  8.5 21  C 8.5 12.88  15.76 6.5  25 6.5  Z " stroke-width="1" stroke="#d7d7d7" fill="none" />
  </g>
</svg>