<?xml version="1.0" encoding="utf-8"?>
<svg version="1.1" xmlns:xlink="http://www.w3.org/1999/xlink" width="8px" height="7px" xmlns="http://www.w3.org/2000/svg">
  <g transform="matrix(1 0 0 1 -227 -59 )">
    <path d="M 7.55357142857143 2.68963068181818  C 7.72321428571429 2.56036931818182  7.87202380952381 2.41619318181818  8 2.25710227272727  L 8 6.20454545454545  C 8 6.42329545454545  7.93005952380952 6.61055871212121  7.79017857142857 6.76633522727273  C 7.65029761904762 6.92211174242424  7.48214285714286 7  7.28571428571429 7  L 0.714285714285714 7  C 0.517857142857143 7  0.349702380952381 6.92211174242424  0.209821428571429 6.76633522727273  C 0.0699404761904762 6.61055871212121  0 6.42329545454545  0 6.20454545454545  L 0 2.25710227272727  C 0.130952380952381 2.41950757575758  0.28125 2.56368371212121  0.450892857142857 2.68963068181818  C 1.52827380952381 3.50497159090909  2.26785714285714 4.07670454545455  2.66964285714286 4.40482954545455  C 2.83928571428571 4.54403409090909  2.97693452380952 4.65258049242424  3.08258928571429 4.73046875  C 3.18824404761905 4.80835700757576  3.32886904761905 4.88790246212121  3.50446428571429 4.96910511363636  C 3.68005952380952 5.05030776515151  3.84375 5.09090909090909  3.99553571428571 5.09090909090909  L 4 5.09090909090909  L 4.00446428571429 5.09090909090909  C 4.15625 5.09090909090909  4.31994047619048 5.05030776515151  4.49553571428571 4.96910511363636  C 4.67113095238095 4.88790246212121  4.81175595238095 4.80835700757576  4.91741071428571 4.73046875  C 5.02306547619048 4.65258049242424  5.16071428571429 4.54403409090909  5.33035714285714 4.40482954545455  C 5.83630952380952 3.99715909090909  6.57738095238095 3.42542613636364  7.55357142857143 2.68963068181818  Z M 7.78794642857143 0.233664772727272  C 7.92931547619048 0.389441287878787  8 0.576704545454546  8 0.795454545454546  C 8 1.05729166666667  7.92708333333333 1.30752840909091  7.78125 1.54616477272727  C 7.63541666666667 1.78480113636364  7.45386904761905 1.98863636363636  7.23660714285714 2.15767045454545  C 6.11755952380952 3.02272727272727  5.42113095238095 3.56131628787879  5.14732142857143 3.7734375  C 5.11755952380952 3.79663825757576  5.05431547619048 3.84718276515151  4.95758928571429 3.92507102272727  C 4.8608630952381 4.00295928030303  4.78050595238095 4.06593276515151  4.71651785714286 4.11399147727273  C 4.65252976190476 4.16205018939394  4.57514880952381 4.21590909090909  4.484375 4.27556818181818  C 4.39360119047619 4.33522727272727  4.30803571428571 4.37997159090909  4.22767857142857 4.40980113636364  C 4.14732142857143 4.43963068181818  4.07291666666667 4.45454545454545  4.00446428571429 4.45454545454545  L 4 4.45454545454545  L 3.99553571428571 4.45454545454545  C 3.92708333333333 4.45454545454545  3.85267857142857 4.43963068181818  3.77232142857143 4.40980113636364  C 3.69196428571429 4.37997159090909  3.60639880952381 4.33522727272727  3.515625 4.27556818181818  C 3.42485119047619 4.21590909090909  3.34747023809524 4.16205018939394  3.28348214285714 4.11399147727273  C 3.21949404761905 4.06593276515151  3.13913690476191 4.00295928030303  3.04241071428571 3.92507102272727  C 2.94568452380952 3.84718276515151  2.88244047619048 3.79663825757576  2.85267857142857 3.7734375  C 2.58184523809524 3.56131628787879  2.19196428571429 3.25887784090909  1.68303571428571 2.86612215909091  C 1.17410714285714 2.47336647727273  0.869047619047619 2.23721590909091  0.767857142857143 2.15767045454545  C 0.583333333333333 2.01846590909091  0.409226190476191 1.82705965909091  0.245535714285714 1.58345170454545  C 0.0818452380952381 1.33984375  0 1.11363636363636  0 0.904829545454546  C 0 0.646306818181818  0.0617559523809524 0.430871212121211  0.185267857142857 0.258522727272728  C 0.308779761904762 0.0861742424242418  0.485119047619048 0  0.714285714285714 0  L 7.28571428571429 0  C 7.47916666666667 0  7.64657738095238 0.0778882575757567  7.78794642857143 0.233664772727272  Z " fill-rule="nonzero" fill="#7f7f7f" stroke="none" transform="matrix(1 0 0 1 227 59 )" />
  </g>
</svg>