<?xml version="1.0" encoding="utf-8"?>
<svg version="1.1" xmlns:xlink="http://www.w3.org/1999/xlink" width="16px" height="13px" xmlns="http://www.w3.org/2000/svg">
  <g transform="matrix(1 0 0 1 -124 -237 )">
    <path d="M 4.3359375 3.62020383693046  C 4.46614583333333 3.49290567545963  4.53125 3.32274180655476  4.53125 3.10971223021583  C 4.53125 2.8966826538769  4.46614583333333 2.72521982414069  4.3359375 2.59532374100719  C 4.20572916666667 2.4654276578737  4.03385416666667 2.40047961630695  3.8203125 2.40047961630695  C 3.59635416666667 2.40047961630695  3.3984375 2.46672661870504  3.2265625 2.5992206235012  C 3.0546875 2.73171462829736  2.96875 2.90187849720224  2.96875 3.10971223021583  C 2.96875 3.31235011990408  3.0546875 3.47991606714628  3.2265625 3.61241007194245  C 3.3984375 3.74490407673861  3.59635416666667 3.81115107913669  3.8203125 3.81115107913669  C 4.03385416666667 3.81115107913669  4.20572916666667 3.74750199840128  4.3359375 3.62020383693046  Z M 10.13671875 7.45863309352518  C 10.26953125 7.3443245403677  10.3359375 7.21183053557154  10.3359375 7.06115107913669  C 10.3359375 6.91566746602718  10.26953125 6.78577138289369  10.13671875 6.67146282973621  C 10.00390625 6.55715427657874  9.83333333333333 6.5  9.625 6.5  C 9.484375 6.5  9.35546875 6.55845323741007  9.23828125 6.67535971223022  C 9.12109375 6.79226618705036  9.0625 6.92086330935252  9.0625 7.06115107913669  C 9.0625 7.2066346922462  9.12109375 7.33782973621103  9.23828125 7.45473621103118  C 9.35546875 7.57164268585132  9.484375 7.63009592326139  9.625 7.63009592326139  C 9.83333333333333 7.63009592326139  10.00390625 7.57294164668265  10.13671875 7.45863309352518  Z M 8.30078125 3.62020383693046  C 8.42838541666667 3.49290567545963  8.4921875 3.32274180655476  8.4921875 3.10971223021583  C 8.4921875 2.8966826538769  8.42838541666667 2.72521982414069  8.30078125 2.59532374100719  C 8.17317708333333 2.4654276578737  8.00260416666667 2.40047961630695  7.7890625 2.40047961630695  C 7.56510416666667 2.40047961630695  7.3671875 2.46672661870504  7.1953125 2.5992206235012  C 7.0234375 2.73171462829736  6.9375 2.90187849720224  6.9375 3.10971223021583  C 6.9375 3.31235011990408  7.0234375 3.47991606714628  7.1953125 3.61241007194245  C 7.3671875 3.74490407673861  7.56510416666667 3.81115107913669  7.7890625 3.81115107913669  C 8.00260416666667 3.81115107913669  8.17317708333333 3.74750199840128  8.30078125 3.62020383693046  Z M 13.25 7.45863309352518  C 13.3854166666667 7.3443245403677  13.453125 7.21183053557154  13.453125 7.06115107913669  C 13.453125 6.91566746602718  13.3854166666667 6.78577138289369  13.25 6.67146282973621  C 13.1145833333333 6.55715427657874  12.9453125 6.5  12.7421875 6.5  C 12.6015625 6.5  12.47265625 6.55845323741007  12.35546875 6.67535971223022  C 12.23828125 6.79226618705036  12.1796875 6.92086330935252  12.1796875 7.06115107913669  C 12.1796875 7.2066346922462  12.23828125 7.33782973621103  12.35546875 7.45473621103118  C 12.47265625 7.57164268585132  12.6015625 7.63009592326139  12.7421875 7.63009592326139  C 12.9453125 7.63009592326139  13.1145833333333 7.57294164668265  13.25 7.45863309352518  Z M 10.30859375 1.93675059952038  C 10.8580729166667 2.54206634692246  11.2135416666667 3.21882494004796  11.375 3.96702637889688  C 11.2135416666667 3.94624300559552  11.03125 3.93585131894484  10.828125 3.93585131894484  C 9.94791666666667 3.93585131894484  9.13802083333333 4.13589128697042  8.3984375 4.53597122302158  C 7.65885416666667 4.93605115907274  7.07682291666667 5.47771782573941  6.65234375 6.16097122302158  C 6.22786458333333 6.84422462030376  6.015625 7.59112709832134  6.015625 8.40167865707434  C 6.015625 8.80695443645084  6.07552083333333 9.20183852917666  6.1953125 9.5863309352518  C 6.01302083333333 9.60191846522782  5.8359375 9.60971223021583  5.6640625 9.60971223021583  C 5.52864583333333 9.60971223021583  5.3984375 9.60581534772182  5.2734375 9.59802158273381  C 5.1484375 9.5902278177458  5.00520833333333 9.57334132693845  4.84375 9.54736211031175  C 4.68229166666667 9.52138289368505  4.56640625 9.50319744204636  4.49609375 9.49280575539568  C 4.42578125 9.482414068745  4.28385416666667 9.45513589128697  4.0703125 9.41097122302158  C 3.85677083333333 9.36680655475619  3.7265625 9.33952837729816  3.6796875 9.32913669064748  L 1.703125 10.3189448441247  L 2.265625 8.61990407673861  C 0.755208333333333 7.56514788169464  0 6.29216626698641  0 4.80095923261391  C 0 3.92286171063149  0.25390625 3.11490807354117  0.76171875 2.37709832134293  C 1.26953125 1.63928856914468  1.95703125 1.05865307753797  2.82421875 0.635191846522782  C 3.69140625 0.211730615507593  4.63802083333333 0  5.6640625 0  C 6.58072916666667 0  7.44661458333333 0.171462829736211  8.26171875 0.514388489208633  C 9.07682291666667 0.857314148681056  9.75911458333333 1.33143485211831  10.30859375 1.93675059952038  Z M 15.33203125 6.28567146282974  C 15.77734375 6.91696642685851  16 7.60151878497202  16 8.33932853717026  C 16 8.94724220623501  15.8216145833333 9.52787769784173  15.46484375 10.0812350119904  C 15.1080729166667 10.6345923261391  14.625 11.1372901678657  14.015625 11.5893285371703  L 14.4453125 13  L 12.890625 12.150479616307  C 12.109375 12.3427258193445  11.5416666666667 12.4388489208633  11.1875 12.4388489208633  C 10.3072916666667 12.4388489208633  9.49739583333333 12.2556954436451  8.7578125 11.8893884892086  C 8.01822916666667 11.5230815347722  7.43619791666667 11.0255795363709  7.01171875 10.3968824940048  C 6.58723958333333 9.76818545163869  6.375 9.08233413269384  6.375 8.33932853717026  C 6.375 7.59632294164668  6.58723958333333 6.91047162270184  7.01171875 6.28177458033573  C 7.43619791666667 5.65307753796962  8.01822916666667 5.15557553956835  8.7578125 4.78926858513189  C 9.49739583333333 4.42296163069544  10.3072916666667 4.23980815347722  11.1875 4.23980815347722  C 12.0260416666667 4.23980815347722  12.8151041666667 4.42296163069544  13.5546875 4.78926858513189  C 14.2942708333333 5.15557553956835  14.88671875 5.65437649880096  15.33203125 6.28567146282974  Z " fill-rule="nonzero" fill="#000000" stroke="none" transform="matrix(1 0 0 1 124 237 )" />
  </g>
</svg>