<?xml version="1.0" encoding="utf-8"?>
<svg version="1.1" xmlns:xlink="http://www.w3.org/1999/xlink" width="16px" height="12px" xmlns="http://www.w3.org/2000/svg">
  <g transform="matrix(1 0 0 1 -201 -238 )">
    <path d="M 5.46569994422755 9.59917355371901  C 5.70663692136085 9.52479338842975  5.89254508272913 9.39393939393939  6.0234244283324 9.20661157024793  C 6.14835471277189 9.01928374655647  6.18107454917271 8.82920110192837  6.12158393753486 8.63636363636364  C 6.06209332589701 8.4435261707989  5.92823944971184 8.30578512396694  5.72002230897936 8.22314049586777  C 5.51775422941067 8.14600550964187  5.30061349693251 8.14325068870523  5.0686001115449 8.21487603305785  C 4.83658672615728 8.28650137741047  4.65811489124373 8.41322314049587  4.53318460680424 8.59504132231405  C 4.40230526120097 8.78236914600551  4.36363636363636 8.97107438016529  4.41717791411043 9.16115702479339  C 4.4707194645845 9.35123966942149  4.59862427960588 9.49035812672176  4.80089235917457 9.57851239669422  C 5.00316043874326 9.66666666666667  5.22476296709426 9.67355371900826  5.46569994422755 9.59917355371901  Z M 6.66592303402119 8.35950413223141  C 6.75515895147797 8.32920110192837  6.82059862427961 8.27823691460055  6.8622420524261 8.20661157024793  C 6.90983454173638 8.13498622589532  6.92024539877301 8.06198347107438  6.89347462353597 7.98760330578512  C 6.86670384829894 7.91322314049587  6.81464956311582 7.86225895316804  6.73731176798661 7.83471074380165  C 6.65402491169362 7.80716253443526  6.56925079010969 7.80853994490358  6.4829894032348 7.83884297520661  C 6.39672801635992 7.86914600550964  6.33277560884923 7.92011019283746  6.29113218070273 7.99173553719008  C 6.18999814091839 8.1625344352617  6.22866703848299 8.28650137741047  6.40713887339654 8.36363636363636  C 6.49042572968953 8.39118457300275  6.57668711656442 8.38980716253444  6.66592303402119 8.35950413223141  Z M 8.39263803680982 7.51652892561983  C 8.67521844208961 8.01515151515151  8.68265476854434 8.53994490358127  8.41494701617401 9.09090909090909  C 8.14723926380368 9.65289256198347  7.67726343186466 10.0661157024793  7.00501952035694 10.3305785123967  C 6.33277560884923 10.595041322314  5.6664807585053 10.6280991735537  5.00613496932515 10.4297520661157  C 4.36958542480015 10.2424242424242  3.930842163971 9.89393939393939  3.6899051868377 9.38429752066116  C 3.44896820970441 8.87465564738292  3.46830265848671 8.35812672176309  3.74790853318461 7.83471074380165  C 4.02751440788251 7.32231404958678  4.47815579103923 6.93939393939394  5.09983268265477 6.68595041322314  C 5.72150957427031 6.43250688705234  6.34764826175869 6.3801652892562  6.97824874511991 6.52892561983471  C 7.63859453430006 6.68870523415978  8.11005763153002 7.01790633608815  8.39263803680982 7.51652892561983  Z M 10.0167317345231 9.95454545454546  C 10.8882691950177 9.30165289256198  11.2823944971184 8.57300275482094  11.1991076408254 7.76859504132231  C 11.1455660903514 7.2396694214876  10.8808328685629 6.77134986225895  10.4049079754601 6.36363636363636  C 9.92898308235732 5.95592286501377  9.30879345603272 5.65564738292011  8.54433909648634 5.46280991735537  C 7.77988473693995 5.26997245179063  6.96337609221045 5.21212121212121  6.09481316229783 5.28925619834711  C 4.76817252277375 5.41597796143251  3.66908347276445 5.80578512396694  2.79754601226994 6.45867768595041  C 1.92600855177542 7.11157024793388  1.53188324967466 7.84022038567493  1.61517010596765 8.64462809917355  C 1.66871165644172 9.17355371900826  1.93344487823015 9.64187327823691  2.40936977133296 10.0495867768595  C 2.88529466443577 10.4573002754821  3.50548429076036 10.7575757575758  4.26993865030675 10.9504132231405  C 5.03439300985313 11.1432506887052  5.85090165458264 11.2011019283747  6.71946458449526 11.1239669421488  C 8.04610522401934 10.9972451790634  9.14519427402863 10.6074380165289  10.0167317345231 9.95454545454546  Z M 13.6441717791411 6.83884297520661  C 13.8464398587098 7.12809917355372  13.9475738984941 7.44903581267218  13.9475738984941 7.80165289256198  C 13.9475738984941 8.1763085399449  13.8375162669641 8.56060606060606  13.6174010039041 8.95454545454546  C 13.397285740844 9.34848484848485  13.0730619074177 9.72589531680441  12.6447295036252 10.0867768595041  C 12.2163970998327 10.4476584022039  11.7151886967838 10.771349862259  11.1411042944785 11.0578512396694  C 10.5670198921733 11.3443526170799  9.89477598066555 11.5730027548209  9.12437255995538 11.7438016528926  C 8.35396913924521 11.9146005509642  7.54935861684328 12  6.71054099274958 12  C 5.87172336865588 12  5.05372745863543 11.9077134986226  4.25655326268823 11.7231404958678  C 3.45937906674103 11.5385674931129  2.74400446179587 11.2823691460055  2.11042944785276 10.9545454545455  C 1.47685443390965 10.6267217630854  0.966722439115077 10.2107438016529  0.580033463469046 9.70661157024793  C 0.193344487823015 9.20247933884297  0 8.65289256198347  0 8.05785123966942  C 0 7.42424242424242  0.206729875441532 6.74931129476584  0.620189626324596 6.03305785123967  C 1.03364937720766 5.3168044077135  1.62111916713144 4.60606060606061  2.38259899609593 3.90082644628099  C 3.38799033277561 2.96969696969697  4.40379252649191 2.31955922865014  5.43000557724484 1.9504132231405  C 6.45621862799777 1.58126721763085  7.18944041643428 1.60055096418733  7.62967094255438 2.00826446280992  C 8.01635991820041 2.36088154269972  8.07585052983826 2.9366391184573  7.80814277746793 3.73553719008265  C 7.78434653281279 3.81267217630854  7.7813720022309 3.86776859504132  7.79921918572225 3.90082644628099  C 7.81706636921361 3.93388429752066  7.84681167503253 3.95316804407713  7.88845510317903 3.95867768595041  C 7.93009853132553 3.96418732782369  7.97322922476297 3.96280991735537  8.01784718349136 3.95454545454546  C 8.06246514221974 3.94628099173554  8.10262130507529 3.9366391184573  8.138315672058 3.92561983471074  L 8.19185722253207 3.90909090909091  C 9.0187767242982 3.58402203856749  9.75051124744376 3.42148760330579  10.3870607919688 3.42148760330579  C 11.0236103364938 3.42148760330579  11.4787135155233 3.58953168044077  11.7523703290574 3.92561983471074  C 12.0200780814278 4.27272727272727  12.0200780814278 4.76308539944904  11.7523703290574 5.39669421487603  C 11.7404722067299 5.46831955922865  11.7270868191114 5.52341597796143  11.7122141662019 5.56198347107438  C 11.6973415132924 5.60055096418733  11.710726900911 5.63498622589532  11.7523703290574 5.66528925619835  C 11.7940137572039 5.69559228650138  11.8297081241867 5.71625344352617  11.8594534300056 5.72727272727273  C 11.8891987358245 5.73829201101928  11.9397657557167 5.75482093663912  12.0111544896821 5.77685950413223  C 12.3502509760178 5.87603305785124  12.6566276259528 6.00550964187328  12.9302844394869 6.16528925619835  C 13.203941253021 6.32506887052342  13.4419036995724 6.5495867768595  13.6441717791411 6.83884297520661  Z M 12.3859453430006 2.10330578512397  C 12.7369399516639 2.20523415977961  13.037367540435 2.38567493112948  13.287228109314 2.64462809917355  C 13.537088678193 2.90358126721763  13.6992005949061 3.20247933884298  13.7735638594534 3.54132231404959  C 13.8479271240007 3.8801652892562  13.8285926752184 4.20385674931129  13.7155605131065 4.51239669421488  C 13.6679680237962 4.63911845730027  13.5802193716304 4.73278236914601  13.452314556609 4.79338842975207  C 13.3244097415877 4.85399449035813  13.1920431306934 4.86501377410468  13.0552147239264 4.82644628099174  C 12.9183863171593 4.78236914600551  12.817252277375 4.70110192837465  12.7518126045733 4.58264462809917  C 12.6863729317717 4.46418732782369  12.6744748094441 4.34159779614325  12.7161182375906 4.21487603305785  C 12.8350994608663 3.86776859504132  12.7637107269009 3.56198347107438  12.5019520356944 3.29752066115703  C 12.2401933444878 3.03305785123967  11.9219185722253 2.9366391184573  11.5471277189069 3.00826446280992  C 11.404350250976 3.03581267217631  11.2704963747909 3.01377410468319  11.1455660903514 2.94214876033058  C 11.0206358059119 2.87052341597796  10.9462725413646 2.76859504132231  10.9224762967094 2.63636363636364  C 10.8927309908905 2.50413223140496  10.9165272355456 2.38154269972452  10.9938650306748 2.26859504132231  C 11.0712028258041 2.15564738292011  11.1812604573341 2.08539944903581  11.3240379252649 2.05785123966942  C 11.680981595092 1.9862258953168  12.0349507343372 2.00137741046832  12.3859453430006 2.10330578512397  Z M 13.0462911321807 0.18595041322314  C 13.7661275329987 0.392561983471075  14.3848298940323 0.763085399449035  14.9023982152817 1.29752066115702  C 15.419966536531 1.82644628099174  15.7546012269939 2.43939393939394  15.9063022866704 3.13636363636364  C 16.0580033463469 3.83333333333333  16.0178471834914 4.49862258953168  15.7858337981037 5.13223140495868  C 15.7322922476297 5.28099173553719  15.6311582078453 5.39118457300275  15.4824316787507 5.46280991735537  C 15.3337051496561 5.53443526170799  15.1790295593977 5.54545454545455  15.0184049079755 5.49586776859504  C 14.8577802565533 5.44628099173554  14.7387990332776 5.35261707988981  14.6614612381484 5.21487603305785  C 14.5841234430192 5.07713498622589  14.5692507901097 4.93388429752066  14.61684327942 4.78512396694215  C 14.783416992006 4.33333333333333  14.8131622978249 3.8595041322314  14.7060791968767 3.36363636363636  C 14.5989960959286 2.86776859504132  14.3610336493772 2.43250688705234  13.9921918572225 2.05785123966942  C 13.6233500650679 1.67768595041322  13.1831195389478 1.41460055096419  12.6715002788622 1.26859504132231  C 12.1598810187767 1.12258953168044  11.6452872281093 1.09917355371901  11.12771890686 1.19834710743802  C 10.961145194274 1.23140495867769  10.8064696040156 1.20523415977961  10.6636921360848 1.1198347107438  C 10.5209146681539 1.03443526170799  10.4316787506972 0.914600550964185  10.3959843837144 0.760330578512396  C 10.3602900167317 0.606060606060606  10.3885480572597 0.46418732782369  10.4807585052984 0.334710743801653  C 10.5729689533371 0.205234159779614  10.7023610336494 0.123966942148761  10.8689347462354 0.0909090909090908  C 11.6006692693809 -0.0523415977961452  12.3264547313627 -0.0206611570247928  13.0462911321807 0.18595041322314  Z " fill-rule="nonzero" fill="#000000" stroke="none" transform="matrix(1 0 0 1 201 238 )" />
  </g>
</svg>