<?xml version="1.0" encoding="utf-8"?>
<svg version="1.1" xmlns:xlink="http://www.w3.org/1999/xlink" width="11px" height="12px" xmlns="http://www.w3.org/2000/svg">
  <g transform="matrix(1 0 0 1 -165 -238 )">
    <path d="M 0 8.51785714285714  C 0 7.29017857142857  0.52619589977221 6.25  1.57858769931663 5.39732142857143  C 1.54517843583903 5.3125  1.52847380410023 5.19642857142857  1.52847380410023 5.04910714285714  C 1.52847380410023 4.95982142857143  1.55144267274108 4.85044642857143  1.59738041002278 4.72098214285714  C 1.64331814730448 4.59151785714286  1.69343204252088 4.49107142857143  1.74772209567198 4.41964285714286  C 1.74354593773728 4.32142857142857  1.75920652999241 4.203125  1.79470387243736 4.06473214285714  C 1.83020121488231 3.92633928571429  1.87718299164768 3.83035714285714  1.93564920273349 3.77678571428571  C 1.93564920273349 3.15625  2.12879650721336 2.51227678571428  2.51509111617312 1.84486607142857  C 2.90138572513288 1.17745535714286  3.35554290053151 0.709821428571428  3.87756264236902 0.441964285714285  C 4.45804859529233 0.147321428571428  5.13458618071374 0  5.90717539863326 0  C 6.46260440394837 0  7.01803340926348 0.122767857142859  7.57346241457859 0.368303571428572  C 7.77809415337889 0.462053571428572  7.9660212604404 0.569196428571428  8.1372437357631 0.689732142857143  C 8.3084662110858 0.810267857142857  8.45671981776765 0.935267857142856  8.58200455580866 1.06473214285714  C 8.70728929384966 1.19419642857143  8.82213363705391 1.34598214285714  8.92653758542141 1.52008928571429  C 9.03094153378892 1.69419642857143  9.11864085041762 1.859375  9.18963553530752 2.015625  C 9.26063022019742 2.171875  9.32849278663629 2.36049107142857  9.39322323462415 2.58147321428571  C 9.457953682612 2.80245535714286  9.51119969627942 3.00223214285714  9.55296127562642 3.18080357142857  C 9.59472285497342 3.359375  9.64066059225513 3.578125  9.69077448747153 3.83705357142857  L 9.69703872437358 3.87053571428571  C 9.92672741078208 4.24107142857143  10.0415717539863 4.57589285714286  10.0415717539863 4.875  C 10.0415717539863 4.9375  10.0227790432802 5.02678571428571  9.98519362186788 5.14285714285714  C 9.94760820045558 5.25892857142857  9.92881548974943 5.34375  9.92881548974943 5.39732142857143  C 9.92881548974943 5.40178571428571  9.93194760820046 5.40959821428571  9.93821184510251 5.42075892857143  C 9.94447608200456 5.43191964285714  9.95178435839028 5.44308035714286  9.96013667425968 5.45424107142857  C 9.96848899012908 5.46540178571429  9.97266514806378 5.47321428571429  9.97266514806378 5.47767857142857  C 10.2942293090357 5.98660714285714  10.5458428246014 6.46540178571429  10.7275056947608 6.9140625  C 10.9091685649203 7.36272321428571  11 7.828125  11 8.31026785714286  C 11 8.50223214285714  10.9592824601367 8.72544642857143  10.87784738041 8.97991071428571  C 10.7964123006834 9.234375  10.6805239179954 9.36160714285714  10.5301822323462 9.36160714285714  C 10.4925968109339 9.36160714285714  10.4518792710706 9.34486607142857  10.4080296127563 9.31138392857143  C 10.3641799544419 9.27790178571429  10.3245064540623 9.23883928571429  10.2890091116173 9.19419642857143  C 10.2535117691724 9.14955357142857  10.2138382687927 9.09151785714286  10.1699886104784 9.02008928571429  C 10.126138952164 8.94866071428571  10.0927296886864 8.88950892857143  10.0697608200456 8.84263392857143  C 10.0467919514047 8.79575892857143  10.0186028853455 8.73772321428571  9.98519362186788 8.66852678571429  C 9.95178435839028 8.59933035714286  9.93299164768413 8.56026785714286  9.92881548974943 8.55133928571429  C 9.92463933181473 8.546875  9.91837509491268 8.54464285714286  9.91002277904328 8.54464285714286  L 9.87870159453303 8.57142857142857  C 9.63230827638572 9.25892857142857  9.35668185269552 9.75669642857143  9.05182232346242 10.0647321428571  C 9.13534548215642 10.1540178571429  9.26376233864844 10.2399553571429  9.4370728929385 10.3225446428571  C 9.61038344722855 10.4051339285714  9.7544608959757 10.4977678571429  9.86930523917995 10.6004464285714  C 9.98414958238421 10.703125  10.0582763857251 10.8482142857143  10.0916856492027 11.0357142857143  C 10.0833333333333 11.0535714285714  10.0749810174639 11.0892857142857  10.0666287015945 11.1428571428571  C 10.0582763857251 11.1964285714286  10.0436598329537 11.2366071428571  10.0227790432802 11.2633928571429  C 9.75550493545938 11.6964285714286  9.12490508731967 11.9129464285714  8.13097949886105 11.9129464285714  C 7.90964312832194 11.9129464285714  7.67891040242977 11.8928571428571  7.43878132118451 11.8526785714286  C 7.19865223993926 11.8125  6.99402050113895 11.7678571428571  6.8248861047836 11.71875  C 6.65575170842825 11.6696428571429  6.43754745634017 11.6026785714286  6.17027334851936 11.5178571428571  C 6.10763097949886 11.4955357142857  6.05960516324981 11.4799107142857  6.02619589977221 11.4709821428571  C 5.96772968868641 11.453125  5.87167805618831 11.4430803571429  5.7380410022779 11.4408482142857  C 5.6044039483675 11.4386160714286  5.5208807896735 11.4352678571429  5.4874715261959 11.4308035714286  C 5.3162490508732 11.6316964285714  5.05001898253607 11.7767857142857  4.68878132118451 11.8660714285714  C 4.32754365983295 11.9553571428571  3.97570235383447 12  3.63325740318907 12  C 3.48709187547456 12  3.34301442672741 11.9966517857143  3.20102505694761 11.9899553571429  C 3.05903568716781 11.9832589285714  2.86484434320425 11.9631696428571  2.61845102505695 11.9296875  C 2.37205770690964 11.8962053571429  2.16116173120729 11.8504464285714  1.98576309794989 11.7924107142857  C 1.81036446469248 11.734375  1.65480258162491 11.6450892857143  1.51907744874715 11.5245535714286  C 1.3833523158694 11.4040178571429  1.31548974943052 11.2611607142857  1.31548974943052 11.0959821428571  C 1.31548974943052 10.9174107142857  1.33637053910402 10.7845982142857  1.37813211845103 10.6975446428571  C 1.41989369779803 10.6104910714286  1.50550493545938 10.5022321428571  1.63496583143508 10.3727678571429  C 1.68090356871678 10.3638392857143  1.76547076689446 10.3348214285714  1.88866742596811 10.2857142857143  C 2.01186408504176 10.2366071428571  2.11522399392559 10.2098214285714  2.19874715261959 10.2053571428571  C 2.21545178435839 10.2053571428571  2.24468488990129 10.2008928571429  2.28644646924829 10.1919642857143  C 2.29479878511769 10.1830357142857  2.29897494305239 10.1741071428571  2.29897494305239 10.1651785714286  L 2.28644646924829 10.1450892857143  C 2.08599088838269 10.0959821428571  1.86047835990888 9.86049107142857  1.60990888382688 9.43861607142857  C 1.35933940774487 9.01674107142857  1.20690964312832 8.66741071428571  1.15261958997722 8.390625  L 1.12129840546697 8.37053571428571  C 1.10459377372817 8.37053571428571  1.07953682611997 8.41517857142857  1.04612756264237 8.50446428571429  C 0.970956719817768 8.6875  0.857156416097191 8.85379464285714  0.704726651480638 9.00334821428571  C 0.552296886864085 9.15290178571428  0.390470766894457 9.23660714285714  0.219248291571754 9.25446428571429  L 0.212984054669704 9.25446428571429  C 0.196279422930904 9.25446428571429  0.183750949126803 9.24441964285714  0.175398633257403 9.22433035714286  C 0.167046317388003 9.20424107142857  0.156605922551253 9.19196428571429  0.144077448747153 9.1875  C 0.0480258162490509 8.94642857142857  0 8.72321428571429  0 8.51785714285714  Z " fill-rule="nonzero" fill="#000000" stroke="none" transform="matrix(1 0 0 1 165 238 )" />
  </g>
</svg>