<?xml version="1.0" encoding="utf-8"?>
<svg version="1.1" xmlns:xlink="http://www.w3.org/1999/xlink" width="14px" height="13px" xmlns="http://www.w3.org/2000/svg">
  <g transform="matrix(1 0 0 1 -241 -237 )">
    <path d="M 8.18033854166667 10.3948751642576  C 8.77278645833333 11.1009636443276  9.48828125 11.7017082785808  10.3268229166667 12.1971090670171  C 9.28776041666667 12.7323696890057  8.16970486111111 13  6.97265625 13  C 5.78168402777778 13  4.66666666666667 12.7323696890057  3.62760416666667 12.1971090670171  C 4.46614583333333 11.7017082785808  5.181640625 11.1009636443276  5.77408854166667 10.3948751642576  C 6.36653645833333 9.68878668418747  6.76605902777778 8.9257555847569  6.97265625 8.10578186596583  C 7.18532986111111 8.9257555847569  7.587890625 9.68878668418747  8.18033854166667 10.3948751642576  Z M 2.85286458333333 1.17017082785808  C 3.74001736111111 0.560884800700831  4.72743055555556 0.170827858081472  5.81510416666667 0  L 5.81510416666667 4.14257555847569  C 5.81510416666667 5.57752956636005  5.43077256944444 6.88578624616732  4.662109375 8.0673455978975  C 3.89344618055556 9.24890494962768  2.88932291666667 10.1215505913272  1.64973958333333 10.6852825229961  C 0.549913194444444 9.46101620674551  0 8.05168637757337  0 6.45729303547963  C 0 5.39246605343846  0.253689236111111 4.39739378011388  0.761067708333333 3.47207621550591  C 1.26844618055556 2.54675865089794  1.96571180555556 1.77945685501533  2.85286458333333 1.17017082785808  Z M 13.2389322916667 3.47207621550591  C 13.7463107638889 4.39739378011388  14 5.39246605343846  14 6.45729303547963  C 14 8.05168637757337  13.4500868055556 9.46101620674551  12.3502604166667 10.6852825229961  C 11.1106770833333 10.1215505913272  10.1065538194444 9.24890494962768  9.337890625 8.0673455978975  C 8.56922743055556 6.88578624616732  8.18489583333333 5.57752956636005  8.18489583333333 4.14257555847569  L 8.18489583333333 0  C 9.27256944444444 0.170827858081472  10.2599826388889 0.560884800700831  11.1471354166667 1.17017082785808  C 12.0342881944444 1.77945685501533  12.7315538194444 2.54675865089794  13.2389322916667 3.47207621550591  Z " fill-rule="nonzero" fill="#000000" stroke="none" transform="matrix(1 0 0 1 241 237 )" />
  </g>
</svg>