<?xml version="1.0" encoding="utf-8"?>
<svg version="1.1" xmlns:xlink="http://www.w3.org/1999/xlink" width="16px" height="15px" xmlns="http://www.w3.org/2000/svg">
  <g transform="matrix(1 0 0 1 -278 -236 )">
    <path d="M 4.55357142857143 0.739966555183947  C 5.64285714285714 0.257803790412486  6.7827380952381 0.0139353400222947  7.97321428571429 0.00836120401337848  C 9.40178571428571 -0.0027870680044606  10.7440476190476 0.331661092530657  12 1.01170568561873  C 13.3809523809524 1.75863991081382  14.4285714285714 2.79542920847269  15.1428571428571 4.12207357859532  L 8.51785714285714 3.79598662207358  C 7.56547619047619 3.74581939799331  6.69047619047619 3.95345596432553  5.89285714285714 4.41889632107023  C 5.0952380952381 4.88433667781494  4.54464285714286 5.52396878483835  4.24107142857143 6.33779264214047  L 1.77678571428571 2.79264214046823  C 2.53869047619048 1.90635451505017  3.46428571428571 1.22212931995541  4.55357142857143 0.739966555183947  Z M 0 7.5  C 0 6.01170568561873  0.43452380952381 4.64325529542921  1.30357142857143 3.39464882943144  L 4.3125 8.938127090301  C 4.74107142857143 9.73522853957636  5.36904761904762 10.340022296544  6.19642857142857 10.752508361204  C 7.02380952380952 11.164994425864  7.89583333333333 11.2904124860647  8.8125 11.128762541806  L 6.75892857142857 14.8996655518395  C 5.49702380952381 14.7157190635451  4.35119047619048 14.2767558528428  3.32142857142857 13.5827759197324  C 2.29166666666667 12.8887959866221  1.48065476190476 12.0080824972129  0.888392857142857 10.940635451505  C 0.296130952380952 9.8731884057971  0 8.72630992196209  0 7.5  Z M 10.9553571428571 5.02508361204013  L 15.4642857142857 4.80769230769231  C 15.8095238095238 5.6438127090301  15.9866071428571 6.50919732441472  15.9955357142857 7.40384615384615  C 16.0044642857143 8.29849498327759  15.860119047619 9.15133779264214  15.5625 9.9623745819398  C 15.264880952381 10.7734113712375  14.8095238095238 11.5314938684504  14.1964285714286 12.2366220735786  C 13.5833333333333 12.9417502787068  12.8511904761905 13.525641025641  12 13.9882943143813  C 10.6309523809524 14.7296544035674  9.14880952380952 15.0613154960981  7.55357142857143 14.9832775919732  L 11.1696428571429 9.7742474916388  C 11.6934523809524 9.04403567447046  11.9389880952381 8.23439241917503  11.90625 7.34531772575251  C 11.8735119047619 6.45624303232999  11.5565476190476 5.68283166109253  10.9553571428571 5.02508361204013  Z M 6.09375 5.71488294314381  C 6.62053571428572 5.22157190635452  7.25595238095238 4.97491638795987  8 4.97491638795987  C 8.74404761904762 4.97491638795987  9.37946428571429 5.22157190635452  9.90625 5.71488294314381  C 10.4330357142857 6.20819397993311  10.6964285714286 6.80323299888517  10.6964285714286 7.5  C 10.6964285714286 8.19676700111483  10.4330357142857 8.79180602006689  9.90625 9.28511705685619  C 9.37946428571429 9.77842809364548  8.74404761904762 10.0250836120401  8 10.0250836120401  C 7.25595238095238 10.0250836120401  6.62053571428572 9.77842809364548  6.09375 9.28511705685619  C 5.56696428571429 8.79180602006689  5.30357142857143 8.19676700111483  5.30357142857143 7.5  C 5.30357142857143 6.80323299888517  5.56696428571429 6.20819397993311  6.09375 5.71488294314381  Z " fill-rule="nonzero" fill="#000000" stroke="none" transform="matrix(1 0 0 1 278 236 )" />
  </g>
</svg>