<?xml version="1.0" encoding="utf-8"?>
<svg version="1.1" xmlns:xlink="http://www.w3.org/1999/xlink" width="13px" height="12px" xmlns="http://www.w3.org/2000/svg">
  <g transform="matrix(1 0 0 1 -51 -124 )">
    <path d="M 3.61111111111111 3.81818181818182  L 3.61111111111111 5.45454545454546  L 9.38888888888889 5.45454545454546  L 9.38888888888889 3.81818181818182  C 9.38888888888889 3.21590909090909  9.10677083333333 2.70170454545455  8.54253472222222 2.27556818181818  C 7.97829861111111 1.84943181818182  7.29745370370371 1.63636363636364  6.5 1.63636363636364  C 5.7025462962963 1.63636363636364  5.02170138888889 1.84943181818182  4.45746527777778 2.27556818181818  C 3.89322916666667 2.70170454545455  3.61111111111111 3.21590909090909  3.61111111111111 3.81818181818182  Z M 12.6840277777778 5.69318181818182  C 12.8946759259259 5.85227272727273  13 6.04545454545454  13 6.27272727272727  L 13 11.1818181818182  C 13 11.4090909090909  12.8946759259259 11.6022727272727  12.6840277777778 11.7613636363636  C 12.4733796296296 11.9204545454545  12.2175925925926 12  11.9166666666667 12  L 1.08333333333333 12  C 0.782407407407408 12  0.52662037037037 11.9204545454545  0.315972222222222 11.7613636363636  C 0.105324074074074 11.6022727272727  0 11.4090909090909  0 11.1818181818182  L 0 6.27272727272727  C 0 6.04545454545454  0.105324074074074 5.85227272727273  0.315972222222222 5.69318181818182  C 0.52662037037037 5.53409090909091  0.782407407407408 5.45454545454546  1.08333333333333 5.45454545454546  L 1.44444444444444 5.45454545454546  L 1.44444444444444 3.81818181818182  C 1.44444444444444 2.77272727272727  1.94097222222222 1.875  2.93402777777778 1.125  C 3.92708333333333 0.375  5.11574074074074 0  6.5 0  C 7.88425925925926 0  9.07291666666667 0.375  10.0659722222222 1.125  C 11.0590277777778 1.875  11.5555555555556 2.77272727272727  11.5555555555556 3.81818181818182  L 11.5555555555556 5.45454545454546  L 11.9166666666667 5.45454545454546  C 12.2175925925926 5.45454545454546  12.4733796296296 5.53409090909091  12.6840277777778 5.69318181818182  Z " fill-rule="nonzero" fill="#7f7f7f" stroke="none" transform="matrix(1 0 0 1 51 124 )" />
  </g>
</svg>